PathFileType	4	(X/Y/Z)	C:/Users/opensim2020/Desktop/walking_exp_matlab/subject06_walking13_straight_01.trc	
DataRate	CameraRate	NumFrames	NumMarkers	Units	OrigDataRate	OrigDataStartFrame	OrigNumFrames	
100.00	100.00	6	50	mm	100.00	950	163	
Frame#	Time	LFHD			RFHD			LBHD			RBHD			C7			T10			CLAV			STRN			RBAK			LSHO			LUPA			LELB			LFRM			LWRA			LWRB			LFIN			RSHO			RUPA			RELB			RFRM			RWRA			RWRB			RFIN			LASI			RASI			LPSI			RPSI			LTHI			LKNE			LTIB			LANK			LHEE			LTOE			RTHI			RKNE			RTIB			RANK			RHEE			RTOE			*39			*40			*41			*42			*43			*44			*45			*46			*47			*48			*49			
		X1	Y1	Z1	X2	Y2	Z2	X3	Y3	Z3	X4	Y4	Z4	X5	Y5	Z5	X6	Y6	Z6	X7	Y7	Z7	X8	Y8	Z8	X9	Y9	Z9	X10	Y10	Z10	X11	Y11	Z11	X12	Y12	Z12	X13	Y13	Z13	X14	Y14	Z14	X15	Y15	Z15	X16	Y16	Z16	X17	Y17	Z17	X18	Y18	Z18	X19	Y19	Z19	X20	Y20	Z20	X21	Y21	Z21	X22	Y22	Z22	X23	Y23	Z23	X24	Y24	Z24	X25	Y25	Z25	X26	Y26	Z26	X27	Y27	Z27	X28	Y28	Z28	X29	Y29	Z29	X30	Y30	Z30	X31	Y31	Z31	X32	Y32	Z32	X33	Y33	Z33	X34	Y34	Z34	X35	Y35	Z35	X36	Y36	Z36	X37	Y37	Z37	X38	Y38	Z38	X39	Y39	Z39	X40	Y40	Z40	X41	Y41	Z41	X42	Y42	Z42	X43	Y43	Z43	X44	Y44	Z44	X45	Y45	Z45	X46	Y46	Z46	X47	Y47	Z47	X48	Y48	Z48	X49	Y49	Z49	X50	Y50	Z50	

102	1.010	-1046.26404	199.28145	1664.91956	-915.44092	186.98212	1651.21545	-1060.30786	63.70966	1621.17322	-931.70355	53.24920	1612.01697	-1001.25012	50.32045	1456.92932	-990.14136	14.97952	1126.97229	-998.94580	159.78775	1378.12952	-1004.57751	201.10062	1204.47278	-920.66235	-23.11720	1285.64539	-1161.36731	102.24532	1408.58398	-1228.11755	104.76407	1204.46143	-1236.74988	106.55821	1091.23328	-1259.36646	156.99918	949.38232	-1222.67041	247.29585	854.69861	-1252.72034	186.29991	833.89600	-1258.15002	247.15399	766.83893	-837.83496	115.12619	1410.92432	-751.15338	73.50511	1212.18311	-740.26190	80.36982	1089.76941	-725.01434	93.73428	969.79956	-759.89709	148.63211	829.74054	-717.92499	95.85135	831.74890	-717.31183	131.84126	755.39819	-1100.94995	191.11568	966.51276	-881.89148	197.15712	977.89508	-1068.83411	34.02000	990.06891	-901.53308	45.64550	1000.29559	-1158.27747	148.53870	645.24738	-1143.39136	172.69919	483.95456	-1130.49841	-11.88421	321.93863	-1090.70557	-136.13251	204.06056	-1040.15112	-169.84273	219.58191	-1099.02942	-67.55036	76.54078	-828.49713	162.84966	640.42896	-856.67255	172.97960	515.95551	-863.43616	131.35931	250.76064	-916.80267	121.47263	67.34122	-961.31201	81.33536	44.05706	-918.65656	274.56921	33.02180	-995.04663	97.50179	1709.81445																														 
103	1.020	-1046.25012	209.92152	1665.16016	-915.38446	197.94856	1651.89526	-1059.79993	74.16670	1621.70935	-931.14197	64.02705	1612.79919	-1000.13855	60.77584	1457.53113	-988.83850	25.44106	1127.55237	-998.24677	170.23866	1378.71716	-1003.57416	211.47850	1204.97351	-918.84912	-12.34454	1286.54639	-1160.45032	112.08486	1409.01074	-1227.10706	112.42226	1204.74207	-1235.52869	113.01131	1091.57422	-1258.30115	158.94939	948.14563	-1221.79578	246.46832	850.43469	-1251.53210	184.72212	831.66064	-1257.60474	243.21243	762.79144	-837.04156	126.45081	1411.54407	-749.38074	87.73592	1212.44409	-738.55695	95.97505	1090.25769	-723.41870	111.64780	970.59155	-759.18890	168.49146	831.10992	-716.70300	116.99833	832.61371	-716.29016	154.04749	757.05804	-1099.45422	201.88446	967.64496	-880.35876	207.02682	977.82129	-1068.15393	44.58521	990.92847	-900.71936	55.68154	1000.66882	-1158.25598	164.04842	646.94476	-1143.19727	191.39943	486.22519	-1129.82703	10.55578	320.47757	-1089.85339	-110.50130	199.42877	-1039.10803	-144.89326	213.40717	-1099.86450	-36.85168	75.54611	-828.37671	169.17180	640.03912	-856.35529	178.16853	515.54883	-863.37012	133.32942	250.70282	-917.07330	121.83591	67.49397	-962.13312	82.42550	43.79516	-918.62317	274.98865	32.59539	-994.89777	108.43171	1710.52148																														 
104	1.030	-1046.30750	220.54688	1665.39465	-915.28308	208.95360	1652.50073	-1059.16199	84.65173	1622.16333	-930.50293	74.88496	1613.61731	-999.04138	71.15827	1457.99438	-987.67798	35.80340	1128.02490	-997.55023	180.63000	1379.12964	-1002.63965	221.85561	1205.39893	-917.19543	-1.57844	1287.24939	-1159.62512	121.94255	1409.38416	-1225.97205	119.89322	1204.89197	-1234.22656	119.34289	1091.86877	-1257.01306	161.46442	947.19989	-1220.80310	245.34685	846.43878	-1250.55054	182.90079	829.79181	-1257.05969	239.14017	759.16357	-836.32996	137.63855	1412.10193	-748.03644	101.60976	1212.78113	-736.91711	111.49428	1090.69519	-721.89935	129.55228	971.37830	-758.64600	188.38358	832.98212	-715.22034	137.80156	833.62610	-715.28448	176.31793	758.85370	-1097.91736	212.66451	968.66071	-878.78058	216.62498	977.60193	-1067.48401	55.25418	991.72528	-899.85626	65.52560	1000.94977	-1158.32483	179.41521	648.54797	-1142.86731	209.96686	488.46338	-1129.15112	33.46687	318.26477	-1089.09900	-84.03163	193.76454	-1038.20581	-119.02587	206.16522	-1100.39709	-5.41319	73.60367	-828.18152	175.16824	639.70068	-855.74078	183.40244	515.18756	-863.11261	135.81764	250.68887	-917.13184	122.08113	67.64333	-961.08264	80.88428	44.78361	-918.46033	275.32935	32.26477	-994.74683	119.16328	1710.89185																														 
105	1.040	-1046.23413	231.19250	1665.55444	-915.25720	220.14888	1653.02258	-1058.60278	95.16667	1622.52942	-929.89276	85.94291	1614.28003	-998.06836	81.70300	1458.39465	-986.63513	45.97886	1128.41296	-996.86578	191.01367	1379.52051	-1001.69025	232.12590	1205.68250	-915.69653	9.04647	1287.83105	-1158.86987	132.02461	1409.73279	-1225.03198	128.01501	1205.23596	-1233.18042	125.60324	1092.16443	-1255.94434	163.50644	946.35486	-1219.75525	244.14983	842.75952	-1249.44019	181.13345	828.27667	-1256.38684	234.90999	755.93549	-835.65009	148.72267	1412.55945	-746.44611	115.76585	1212.98096	-735.34692	127.02065	1091.17285	-720.44806	147.45734	972.24945	-757.86536	208.90572	835.28601	-713.84625	158.75435	834.80078	-714.37793	198.78935	760.81824	-1096.49109	223.49931	969.55188	-877.35583	226.46347	977.44879	-1066.91443	65.84495	992.42194	-899.38000	75.49993	1001.08044	-1158.36206	194.69295	650.16504	-1142.39709	228.22995	490.69031	-1128.65479	56.87269	315.42581	-1088.41785	-56.80748	187.18161	-1037.35547	-92.30267	198.02696	-1100.88855	26.85284	71.06843	-827.84296	181.44536	639.52625	-854.98431	188.19104	514.82880	-862.79077	138.26115	250.72768	-917.11194	122.33938	67.76621	-961.05396	80.94590	45.07324	-918.25281	275.54028	31.97889	-994.34662	130.26691	1711.53027																														 
106	1.050	-1046.22864	241.82790	1665.47986	-915.13702	231.06972	1653.28662	-1057.99707	105.60635	1622.84326	-929.19452	96.83730	1614.85522	-997.21143	92.20979	1458.76978	-985.69141	56.23023	1128.73975	-996.25824	201.34802	1379.71558	-1000.80048	242.40703	1205.91663	-914.40826	19.65052	1288.34241	-1158.11414	142.07762	1409.89063	-1224.39221	135.79529	1205.55933	-1232.16260	131.92119	1092.51074	-1254.87939	165.82352	945.69952	-1218.63269	243.01546	839.41620	-1248.36377	179.44418	827.17712	-1255.63818	230.78886	753.04840	-835.04877	159.76599	1412.95117	-745.10846	129.79243	1213.23108	-733.79810	142.41988	1091.62756	-719.05676	165.26244	973.16107	-757.33221	228.82471	837.53015	-712.27771	179.47578	836.29633	-713.40869	221.26366	763.04156	-1095.10791	234.30370	970.31970	-875.94946	236.21362	977.40204	-1066.46155	76.46872	992.95526	-898.74976	85.18737	1001.12842	-1158.14233	210.39470	651.79401	-1141.93335	246.32396	492.92209	-1128.23242	80.46897	311.99942	-1087.78943	-28.79855	179.88153	-1036.79834	-64.70318	189.04471	-1101.18604	59.79676	68.10160	-827.47192	188.01019	639.32996	-854.26318	193.28510	514.34406	-862.44830	140.72165	250.80490	-917.10345	122.67930	67.92548	-961.00983	81.09789	45.35135	-917.84058	275.70236	31.89545	-994.04639	141.07832	1711.85889																														 
107	1.060	-1046.18994	252.42734	1665.37341	-915.04810	242.09612	1653.35815	-1057.39600	116.11223	1623.07947	-928.58173	107.70557	1615.32495	-996.33014	102.58994	1459.05127	-984.78577	66.50282	1128.96338	-995.69543	211.74449	1379.88062	-999.93121	252.69066	1206.04993	-913.10242	30.14742	1288.80334	-1157.43945	152.20116	1410.00513	-1223.23535	143.41386	1205.52673	-1231.29077	138.25000	1092.90405	-1253.86743	168.14557	945.14990	-1217.42310	241.78326	836.38678	-1247.39307	178.08449	826.20752	-1254.76331	226.85445	750.54749	-834.52332	170.60703	1413.25549	-743.91644	143.49205	1213.42419	-732.38538	157.74864	1092.08667	-717.75525	183.06432	974.13928	-756.62451	249.17216	839.94824	-711.27802	200.41451	837.49609	-712.44812	243.59398	765.46808	-1093.68970	245.10887	970.90302	-874.73010	245.93033	977.35706	-1066.09094	87.18196	993.33728	-898.35107	94.95076	1000.99933	-1158.68555	224.31726	653.65344	-1141.39404	264.08975	495.16510	-1127.92029	104.08511	308.21304	-1087.17480	0.00551	172.04587	-1036.15125	-36.25998	179.37189	-1101.50574	94.18604	65.21520	-827.07306	194.83131	639.09052	-853.54443	198.73257	513.99023	-862.27490	143.13412	250.84888	-917.15155	123.03528	68.13171	-961.06586	81.30789	45.72681	-917.61682	275.95187	31.69026	-993.76678	151.93945	1711.97607																														 
